HIERARCHY
ROOT Haolin_28_06:Solving:Hips
{
	OFFSET 0.000000 0.000000 0.000000
	CHANNELS 6 Xposition Yposition Zposition Xrotation Yrotation Zrotation
	JOINT Haolin_28_06:Solving:Spine
	{
		OFFSET 0.000000 -12.181966 2.015561
		CHANNELS 6 Xposition Yposition Zposition Xrotation Yrotation Zrotation
		JOINT Haolin_28_06:Solving:Spine1
		{
			OFFSET 0.000000 -8.890296 1.567602
			CHANNELS 6 Xposition Yposition Zposition Xrotation Yrotation Zrotation
			JOINT Haolin_28_06:Solving:Spine2
			{
				OFFSET 0.000000 -8.993092 0.786796
				CHANNELS 6 Xposition Yposition Zposition Xrotation Yrotation Zrotation
				JOINT Haolin_28_06:Solving:Spine3
				{
					OFFSET 0.000000 -9.027443 0.000000
					CHANNELS 6 Xposition Yposition Zposition Xrotation Yrotation Zrotation
					JOINT Haolin_28_06:Solving:Neck
					{
						OFFSET 0.000000 -11.606712 -1.160669
						CHANNELS 6 Xposition Yposition Zposition Xrotation Yrotation Zrotation
						JOINT Haolin_28_06:Solving:Neck1
						{
							OFFSET 0.000000 -7.471592 -0.653680
							CHANNELS 6 Xposition Yposition Zposition Xrotation Yrotation Zrotation
							JOINT Haolin_28_06:Solving:Head
							{
								OFFSET 0.000000 -7.386181 -1.302382
								CHANNELS 6 Xposition Yposition Zposition Xrotation Yrotation Zrotation
								JOINT Haolin_28_06:Solving:HeadEnd
								{
									OFFSET 0.000000 -9.728081 0.000002
									CHANNELS 6 Xposition Yposition Zposition Xrotation Yrotation Zrotation
									End Site
									{
										OFFSET 0.000000 -9.728081 0.000002
									}
								}
							}
						}
					}
					JOINT Haolin_28_06:Solving:RightShoulder
					{
						OFFSET 0.000000 -8.290508 -5.270916
						CHANNELS 6 Xposition Yposition Zposition Xrotation Yrotation Zrotation
						JOINT Haolin_28_06:Solving:RightArm
						{
							OFFSET -19.261074 -0.000008 0.000000
							CHANNELS 6 Xposition Yposition Zposition Xrotation Yrotation Zrotation
							JOINT Haolin_28_06:Solving:RightForeArm
							{
								OFFSET -30.691700 -0.000011 0.000000
								CHANNELS 6 Xposition Yposition Zposition Xrotation Yrotation Zrotation
								JOINT Haolin_28_06:Solving:RightHand
								{
									OFFSET -20.216934 -0.000008 0.000000
									CHANNELS 6 Xposition Yposition Zposition Xrotation Yrotation Zrotation
									JOINT Haolin_28_06:Solving:RightHandThumb1
									{
										OFFSET -4.948814 2.881329 -3.679893
										CHANNELS 6 Xposition Yposition Zposition Xrotation Yrotation Zrotation
										End Site
										{
											OFFSET -7.039886 -0.000004 -7.104978
										}
									}
									JOINT Haolin_28_06:Solving:RightHandMiddle1
									{
										OFFSET -13.196846 -0.000004 0.084595
										CHANNELS 6 Xposition Yposition Zposition Xrotation Yrotation Zrotation
										End Site
										{
											OFFSET -10.002037 -0.000004 0.000000
										}
									}
								}
							}
						}
					}
					JOINT Haolin_28_06:Solving:LeftShoulder
					{
						OFFSET 0.000000 -8.290508 -5.270916
						CHANNELS 6 Xposition Yposition Zposition Xrotation Yrotation Zrotation
						JOINT Haolin_28_06:Solving:LeftArm
						{
							OFFSET 19.261074 -0.000008 0.000000
							CHANNELS 6 Xposition Yposition Zposition Xrotation Yrotation Zrotation
							JOINT Haolin_28_06:Solving:LeftForeArm
							{
								OFFSET 30.691700 -0.000011 0.000000
								CHANNELS 6 Xposition Yposition Zposition Xrotation Yrotation Zrotation
								JOINT Haolin_28_06:Solving:LeftHand
								{
									OFFSET 20.216934 -0.000008 0.000000
									CHANNELS 6 Xposition Yposition Zposition Xrotation Yrotation Zrotation
									JOINT Haolin_28_06:Solving:LeftHandThumb1
									{
										OFFSET 4.948814 2.881329 -3.679893
										CHANNELS 6 Xposition Yposition Zposition Xrotation Yrotation Zrotation
										End Site
										{
											OFFSET 7.039886 -0.000004 -7.104978
										}
									}
									JOINT Haolin_28_06:Solving:LeftHandMiddle1
									{
										OFFSET 13.196846 -0.000004 0.084595
										CHANNELS 6 Xposition Yposition Zposition Xrotation Yrotation Zrotation
										End Site
										{
											OFFSET 10.002037 -0.000004 0.000000
										}
									}
								}
							}
						}
					}
				}
			}
		}
	}
	JOINT Haolin_28_06:Solving:RightUpLeg
	{
		OFFSET -10.083070 0.000000 0.000000
		CHANNELS 6 Xposition Yposition Zposition Xrotation Yrotation Zrotation
		JOINT Haolin_28_06:Solving:RightLeg
		{
			OFFSET 0.000000 47.042522 -0.000008
			CHANNELS 6 Xposition Yposition Zposition Xrotation Yrotation Zrotation
			JOINT Haolin_28_06:Solving:RightFoot
			{
				OFFSET 0.000000 38.766415 -0.000006
				CHANNELS 6 Xposition Yposition Zposition Xrotation Yrotation Zrotation
				JOINT Haolin_28_06:Solving:RightForeFoot
				{
					OFFSET 0.000000 3.531212 -0.000000
					CHANNELS 6 Xposition Yposition Zposition Xrotation Yrotation Zrotation
					JOINT Haolin_28_06:Solving:RightToeBase
					{
						OFFSET 0.000000 0.000000 -13.829352
						CHANNELS 6 Xposition Yposition Zposition Xrotation Yrotation Zrotation
						JOINT Haolin_28_06:Solving:RightToeBaseEnd
						{
							OFFSET 0.000000 0.000000 -4.034167
							CHANNELS 6 Xposition Yposition Zposition Xrotation Yrotation Zrotation
							End Site
							{
								OFFSET 0.000000 -4.034164 0.000004
							}
						}
					}
				}
			}
		}
	}
	JOINT Haolin_28_06:Solving:LeftUpLeg
	{
		OFFSET 10.083070 0.000000 0.000000
		CHANNELS 6 Xposition Yposition Zposition Xrotation Yrotation Zrotation
		JOINT Haolin_28_06:Solving:LeftLeg
		{
			OFFSET 0.000000 47.042522 -0.000008
			CHANNELS 6 Xposition Yposition Zposition Xrotation Yrotation Zrotation
			JOINT Haolin_28_06:Solving:LeftFoot
			{
				OFFSET 0.000000 38.766415 -0.000006
				CHANNELS 6 Xposition Yposition Zposition Xrotation Yrotation Zrotation
				JOINT Haolin_28_06:Solving:LeftForeFoot
				{
					OFFSET 0.000000 3.531212 -0.000000
					CHANNELS 6 Xposition Yposition Zposition Xrotation Yrotation Zrotation
					JOINT Haolin_28_06:Solving:LeftToeBase
					{
						OFFSET 0.000000 0.000000 -13.829352
						CHANNELS 6 Xposition Yposition Zposition Xrotation Yrotation Zrotation
						JOINT Haolin_28_06:Solving:LeftToeBaseEnd
						{
							OFFSET 0.000000 0.000000 -4.855067
							CHANNELS 6 Xposition Yposition Zposition Xrotation Yrotation Zrotation
							End Site
							{
								OFFSET 0.000000 -4.855064 0.000004
							}
						}
					}
				}
			}
		}
	}
}
MOTION
Frames: 4
Frame Time: 0.041667
31.640667 -109.150261 -94.615814 87.409879 13.581501 -1.924715 0.000002 -12.181948 2.015535 16.486465 -0.122735 3.476250 -0.000001 -8.890282 1.567614 0.400960 -0.154697 -0.084623 0.000003 -8.993100 0.786783 -0.043989 -2.523857 1.049598 -0.000007 -9.027430 0.000009 1.927133 -1.596143 3.614126 -0.000002 -11.606705 -1.160632 -7.289968 -6.309955 0.099210 0.000002 -7.471608 -0.653710 -1.766202 -16.898450 -2.620042 0.000005 -7.386207 -1.302364 4.449092 -1.026064 -0.927249 0.000007 -9.728088 0.000014 0.000002 -0.000001 -0.000000 0.000000 -8.290508 -5.270879 -0.000003 14.905013 13.898906 -19.261078 0.000008 0.000010 -62.373151 -49.458062 -113.248935 -30.691725 -0.000015 -0.000005 -11.465502 -54.506839 -9.377042 -20.216946 -0.000011 0.000027 7.536072 -13.713375 29.163504 -4.948803 2.881321 -3.679874 0.000007 0.000005 0.000005 -13.196837 -0.000020 0.084609 0.000005 0.000001 0.000001 -0.000003 -8.290508 -5.270880 0.000001 -6.392295 -11.663599 19.261068 -0.000019 0.000005 -52.241907 49.955846 101.271515 30.691713 -0.000021 0.000008 17.086891 46.284558 -12.526228 20.216928 0.000001 0.000010 3.570411 6.123413 -30.325265 4.948798 2.881311 -3.679888 0.000008 -0.000003 -0.000002 13.196864 -0.000010 0.084600 0.000002 -0.000003 0.000003 -10.083063 0.000001 -0.000021 2.727054 18.827990 11.985545 0.000001 47.042542 -0.000004 6.947843 -0.000001 -0.000001 -0.000009 38.766422 -0.000017 5.661420 2.524755 4.670053 0.000011 3.531212 0.000006 -0.000003 0.000000 0.000001 0.000020 0.000013 -13.829365 -2.331976 0.000006 -0.000001 0.000008 0.000008 -4.034191 0.000004 -0.000001 0.000001 10.083073 -0.000002 -0.000012 0.267232 -16.346009 3.938027 -0.000001 47.042526 0.000005 9.752677 0.000000 -0.000000 -0.000011 38.766415 -0.000008 2.013321 -2.860868 2.949679 -0.000008 3.531212 0.000005 -0.000000 0.000001 -0.000000 -0.000001 -0.000002 -13.829345 3.498685 0.000001 0.000000 -0.000001 -0.000008 -4.855052 -0.000002 0.000001 0.000000 
31.587868 -109.219215 -94.602402 87.351836 13.578295 -1.930926 0.000006 -12.181970 2.015559 16.492036 -0.128090 3.482222 0.000003 -8.890308 1.567600 0.397329 -0.153694 -0.084047 -0.000000 -8.993081 0.786791 -0.036154 -2.492876 1.051182 -0.000001 -9.027456 -0.000027 1.908805 -1.582225 3.611224 0.000003 -11.606710 -1.160668 -7.401715 -6.252656 0.074301 -0.000002 -7.471568 -0.653665 -1.686934 -16.796745 -2.605533 -0.000002 -7.386209 -1.302400 4.554144 -1.015288 -0.964420 -0.000001 -9.728081 0.000004 0.000001 -0.000002 -0.000000 0.000003 -8.290508 -5.270901 -0.000013 14.804000 13.854958 -19.261070 -0.000010 0.000002 -63.030775 -49.528499 -114.182533 -30.691685 0.000003 0.000001 -12.379083 -52.799179 -9.916333 -20.216940 -0.000028 -0.000012 7.883401 -14.218381 29.411928 -4.948803 2.881326 -3.679883 0.000003 0.000003 0.000005 -13.196832 -0.000010 0.084610 0.000007 -0.000003 -0.000001 -0.000001 -8.290504 -5.270902 -0.000007 -6.224627 -11.503177 19.261065 -0.000007 -0.000003 -52.754489 50.513490 101.757470 30.691727 -0.000025 0.000026 14.205100 44.924528 -10.134927 20.216930 -0.000003 0.000024 3.951982 6.527290 -31.288390 4.948821 2.881319 -3.679884 0.000003 -0.000003 -0.000002 13.196853 -0.000008 0.084585 0.000002 0.000002 -0.000001 -10.083065 0.000006 -0.000002 2.801123 18.831045 11.950832 0.000005 47.042522 -0.000022 6.891227 -0.000005 -0.000001 0.000003 38.766430 0.000003 5.557695 2.548691 4.650295 -0.000008 3.531197 -0.000015 0.000001 0.000003 -0.000000 -0.000002 0.000006 -13.829376 -2.277622 -0.000001 0.000004 -0.000006 -0.000007 -4.034173 0.000002 -0.000000 0.000005 10.083076 -0.000003 0.000007 0.253489 -16.343155 3.910684 -0.000004 47.042519 0.000018 9.813367 0.000000 -0.000000 -0.000009 38.766422 0.000007 1.985685 -2.879322 2.958618 0.000000 3.531212 -0.000018 0.000001 -0.000000 0.000000 0.000012 0.000002 -13.829371 3.527049 0.000001 0.000001 0.000004 -0.000007 -4.855067 -0.000000 0.000001 0.000002 
31.535213 -109.294319 -94.586838 87.304045 13.575193 -1.945731 0.000000 -12.181947 2.015559 16.504032 -0.135971 3.497339 0.000002 -8.890290 1.567584 0.399121 -0.153099 -0.082013 -0.000002 -8.993094 0.786806 -0.021634 -2.444142 1.051395 -0.000002 -9.027425 0.000021 1.874537 -1.574074 3.599689 0.000003 -11.606716 -1.160672 -7.501235 -6.188894 0.086479 0.000002 -7.471553 -0.653673 -1.668946 -16.714684 -2.617248 -0.000003 -7.386190 -1.302371 4.644620 -1.005549 -1.004146 -0.000001 -9.728127 -0.000031 -0.000002 -0.000002 0.000000 0.000000 -8.290497 -5.270914 -0.000003 14.691165 13.823412 -19.261072 0.000008 0.000004 -63.464444 -49.331366 -114.948669 -30.691698 -0.000011 -0.000007 -12.623389 -51.697750 -9.967882 -20.216934 -0.000015 0.000002 8.107207 -14.427407 29.758106 -4.948812 2.881334 -3.679870 0.000001 -0.000005 0.000003 -13.196852 0.000000 0.084628 0.000001 0.000001 0.000003 0.000001 -8.290497 -5.270914 -0.000001 -6.033986 -11.520036 19.261078 -0.000009 0.000003 -53.252120 49.688465 102.470528 30.691698 -0.000023 0.000005 11.270196 43.172929 -7.764216 20.216923 -0.000016 0.000008 5.047544 8.267725 -31.559347 4.948805 2.881344 -3.679872 0.000001 -0.000003 -0.000003 13.196849 0.000002 0.084606 -0.000002 -0.000002 0.000004 -10.083071 0.000006 -0.000003 2.857993 18.845633 11.922733 -0.000014 47.042530 0.000007 6.835966 -0.000003 -0.000002 0.000008 38.766430 0.000003 5.435906 2.565437 4.617589 0.000006 3.531205 0.000018 -0.000001 -0.000001 -0.000002 -0.000001 0.000006 -13.829350 -2.168712 0.000000 -0.000000 -0.000018 0.000001 -4.034154 0.000006 -0.000002 0.000005 10.083071 0.000015 -0.000002 0.227451 -16.345966 3.888905 -0.000004 47.042542 -0.000018 9.873469 0.000000 -0.000001 -0.000011 38.766422 0.000029 1.960632 -2.896201 2.954670 -0.000004 3.531197 -0.000005 0.000000 0.000000 -0.000001 0.000002 0.000021 -13.829338 3.551320 0.000000 0.000000 -0.000012 -0.000000 -4.855089 -0.000001 -0.000001 0.000001 
31.481401 -109.367859 -94.568619 87.265659 13.587465 -1.962314 -0.000003 -12.181989 2.015588 16.516697 -0.134609 3.504366 -0.000001 -8.890283 1.567599 0.399937 -0.152512 -0.079032 0.000005 -8.993103 0.786787 -0.005228 -2.408257 1.053991 0.000003 -9.027449 0.000013 1.853121 -1.571360 3.613042 -0.000004 -11.606728 -1.160681 -7.630946 -6.131828 0.078170 0.000005 -7.471619 -0.653657 -1.651026 -16.638242 -2.620076 0.000000 -7.386186 -1.302377 4.692741 -0.996880 -1.037198 -0.000002 -9.728058 0.000007 0.000000 0.000003 -0.000000 -0.000002 -8.290493 -5.270950 -0.000006 14.577070 13.776011 -19.261074 0.000005 0.000001 -63.616560 -48.904684 -115.476711 -30.691713 -0.000006 -0.000005 -12.063490 -51.285240 -9.467252 -20.216940 -0.000024 -0.000007 8.175083 -14.349256 30.099168 -4.948794 2.881318 -3.679894 -0.000007 -0.000000 0.000007 -13.196846 -0.000001 0.084597 -0.000010 -0.000001 0.000001 -0.000003 -8.290493 -5.270950 -0.000002 -5.881753 -11.679879 19.261076 0.000003 -0.000026 -53.458497 47.871679 103.237387 30.691730 -0.000024 0.000007 10.510069 41.521212 -7.011082 20.216923 -0.000026 -0.000010 6.004576 9.780586 -31.765328 4.948812 2.881330 -3.679856 -0.000006 -0.000003 -0.000003 13.196841 0.000003 0.084620 -0.000005 0.000002 0.000004 -10.083075 -0.000009 0.000012 2.908066 18.863852 11.893137 -0.000004 47.042526 -0.000015 6.768989 -0.000002 0.000000 0.000011 38.766438 -0.000006 5.307723 2.582470 4.582622 0.000000 3.531212 0.000006 -0.000003 0.000001 -0.000002 0.000013 0.000010 -13.829372 -2.058908 0.000008 -0.000001 -0.000008 0.000001 -4.034155 0.000004 -0.000003 0.000002 10.083067 -0.000008 0.000033 0.191835 -16.356913 3.866428 -0.000003 47.042522 -0.000006 9.941066 0.000000 -0.000000 0.000001 38.766418 0.000012 1.916563 -2.922931 2.963183 0.000006 3.531212 -0.000013 0.000001 -0.000001 0.000000 -0.000002 -0.000000 -13.829364 3.600608 0.000000 0.000001 -0.000001 -0.000000 -4.855091 -0.000001 0.000000 0.000001 
